<svg xmlns="http://www.w3.org/2000/svg" width="85mm" height="55mm" viewBox="0 0 85 55"><path d="M2.203 44.688c.048-.162 3.108-1.855 7.708-4.322 14.24-7.636 43.23-22.69 43.23-22.69S65.09-6.113 78.413 2.842c14.39 9.672-11.363 19.927-11.363 19.927M2.203 44.688l8.46.034 46.2.187M49.614 27.861s4.506 6.642 8.62-3.764" fill="none" stroke="#000" stroke-width=".417"/><path d="M8.01 44.636c-2.62 5.118-3.095 6.085-4.707 9.183" fill="none" stroke="#000" stroke-width=".23"/><path d="M9.039 44.47L7.708 54.86" fill="none" stroke="#000" stroke-width=".273"/><path d="M8.688 41.17s-2.9-8.13-3.027-7.59" fill="none" stroke="#000" stroke-width=".262"/><path d="M8.052 41.613l-7.207-8.61" fill="none" stroke="#000" stroke-width=".308"/><path d="M10.191 40.251c1.276 4.554 1.276 4.706 1.276 4.706" fill="none" stroke="#000" stroke-width=".417"/><path d="M4.528 43.593c2.018-1.13 5.487-3.004 5.51-2.977.026.029.954 3.384 1.009 3.643l.043.207-4.053-.004-4.053-.004z"/><path d="M4.83 43.471c1.826-1.012 4.615-2.528 4.955-2.693.213-.103.221-.1.29.104.136.404.934 3.323.934 3.418 0 .074-.824.093-3.912.09l-3.912-.006z"/><path d="M1.42 44.888c.05-.057 6.227-3.456 7.633-4.2.596-.317 1.111-.543 1.144-.504.076.09 1.29 4.427 1.29 4.61 0 .115-.802.137-5.053.137-2.778 0-5.035-.02-5.014-.043z"/></svg>